<svg width="227" height="77" viewBox="0 0 227 77" fill="none" xmlns="http://www.w3.org/2000/svg">
<g clip-path="url(#clip0_1470:257)">
<g filter="url(#filter0_dd_1470:257)">
<path d="M121 18C121 15.2386 123.239 13 126 13H180C182.761 13 185 15.2386 185 18V57C185 59.7614 182.761 62 180 62H126C123.239 62 121 59.7614 121 57V18Z" fill="#F7F7F7"/>
<rect x="124.556" y="20" width="42.6667" height="3" rx="1.5" fill="#E86719"/>
<rect x="124.556" y="25" width="27.2593" height="3" rx="1.5" fill="#E86719"/>
<rect x="130.481" y="30" width="29.6296" height="3" rx="1.5" fill="#E86719"/>
<rect x="130.481" y="35" width="24.8889" height="3" rx="1.5" fill="#E86719"/>
<rect x="130.481" y="40" width="40.2963" height="3" rx="1.5" fill="#E86719"/>
<rect x="130.481" y="45" width="34.3704" height="3" rx="1.5" fill="#E86719"/>
</g>
<g filter="url(#filter1_dd_1470:257)">
<path d="M8 29C8 26.2386 10.2386 24 13 24H70C72.7614 24 75 26.2386 75 29V68C75 70.7614 72.7614 73 70 73H13C10.2386 73 8 70.7614 8 68V29Z" fill="#F7F7F7"/>
<rect x="13" y="29" width="29" height="3" rx="1.5" fill="#D3D6DF"/>
<rect x="13" y="35" width="17" height="3" rx="1.5" fill="#D3D6DF"/>
<path d="M14 61.5H23.9C24.2693 61.5 24.6086 61.2965 24.7824 60.9706L28.2176 54.5294C28.3914 54.2035 28.7307 54 29.1 54H36.9458C37.2905 54 37.611 53.8224 37.7938 53.53L42.2062 46.47C42.389 46.1776 42.7095 46 43.0542 46H60" stroke="#E86719" stroke-width="2" stroke-linecap="round"/>
</g>
<g filter="url(#filter2_dd_1470:257)">
<path d="M58 5C58 2.23858 60.2386 0 63 0H130C132.761 0 135 2.23858 135 5V44C135 46.7614 132.761 49 130 49H63C60.2386 49 58 46.7614 58 44V5Z" fill="white"/>
<rect x="66" y="44" width="30" height="9" rx="4" transform="rotate(-90 66 44)" fill="#E86719"/>
<rect x="114" y="44" width="36" height="9" rx="4" transform="rotate(-90 114 44)" fill="#E86719"/>
<rect opacity="0.3" x="78" y="44" width="16" height="9" rx="4" transform="rotate(-90 78 44)" fill="#E86719"/>
<rect x="90" y="44" width="24" height="9" rx="4" transform="rotate(-90 90 44)" fill="#E86719"/>
<rect opacity="0.3" x="102" y="44" width="13" height="9" rx="4" transform="rotate(-90 102 44)" fill="#E86719"/>
</g>
<g filter="url(#filter3_dd_1470:257)">
<rect x="87" y="54" width="68" height="16" rx="8" fill="#E86719"/>
<path d="M110.94 60.98C110.92 60.9533 110.85 60.9033 110.73 60.83C110.61 60.7567 110.46 60.68 110.28 60.6C110.1 60.5133 109.903 60.4433 109.69 60.39C109.477 60.33 109.263 60.3 109.05 60.3C108.463 60.3 108.17 60.4967 108.17 60.89C108.17 61.13 108.297 61.3 108.55 61.4C108.81 61.5 109.18 61.62 109.66 61.76C110.113 61.8867 110.503 62.0333 110.83 62.2C111.163 62.36 111.42 62.5767 111.6 62.85C111.78 63.1167 111.87 63.47 111.87 63.91C111.87 64.31 111.797 64.65 111.65 64.93C111.503 65.2033 111.303 65.4267 111.05 65.6C110.797 65.7667 110.51 65.89 110.19 65.97C109.877 66.0433 109.55 66.08 109.21 66.08C108.683 66.08 108.15 66.0033 107.61 65.85C107.07 65.69 106.593 65.4733 106.18 65.2L106.9 63.77C106.927 63.8033 107.013 63.8667 107.16 63.96C107.307 64.0467 107.49 64.14 107.71 64.24C107.93 64.34 108.17 64.4267 108.43 64.5C108.697 64.5667 108.967 64.6 109.24 64.6C109.82 64.6 110.11 64.4233 110.11 64.07C110.11 63.89 110.033 63.75 109.88 63.65C109.733 63.5433 109.53 63.4533 109.27 63.38C109.01 63.3 108.717 63.21 108.39 63.11C107.737 62.91 107.253 62.6667 106.94 62.38C106.633 62.0933 106.48 61.6833 106.48 61.15C106.48 60.65 106.597 60.23 106.83 59.89C107.07 59.5433 107.39 59.2833 107.79 59.11C108.19 58.93 108.627 58.84 109.1 58.84C109.6 58.84 110.073 58.9267 110.52 59.1C110.967 59.2667 111.347 59.44 111.66 59.62L110.94 60.98ZM115.712 66.1C115.119 66.1 114.612 65.9767 114.192 65.73C113.772 65.4833 113.449 65.1567 113.222 64.75C113.002 64.3433 112.892 63.9033 112.892 63.43C112.892 62.9233 113.002 62.46 113.222 62.04C113.442 61.62 113.762 61.2833 114.182 61.03C114.602 60.7767 115.112 60.65 115.712 60.65C116.306 60.65 116.812 60.7767 117.232 61.03C117.652 61.2833 117.969 61.6167 118.182 62.03C118.402 62.4433 118.512 62.8867 118.512 63.36C118.512 63.5533 118.499 63.7233 118.472 63.87H114.592C114.619 64.2233 114.746 64.4933 114.972 64.68C115.206 64.86 115.469 64.95 115.762 64.95C115.996 64.95 116.219 64.8933 116.432 64.78C116.646 64.6667 116.792 64.5133 116.872 64.32L118.232 64.7C118.026 65.1133 117.702 65.45 117.262 65.71C116.829 65.97 116.312 66.1 115.712 66.1ZM114.552 62.89H116.832C116.799 62.5567 116.676 62.2933 116.462 62.1C116.256 61.9 115.999 61.8 115.692 61.8C115.386 61.8 115.126 61.9 114.912 62.1C114.706 62.3 114.586 62.5633 114.552 62.89ZM119.408 64.43C119.408 64.0833 119.504 63.78 119.698 63.52C119.891 63.26 120.158 63.0567 120.498 62.91C120.838 62.7567 121.228 62.68 121.668 62.68C121.881 62.68 122.091 62.7 122.298 62.74C122.504 62.7733 122.684 62.8233 122.838 62.89V62.66C122.838 62.0667 122.488 61.77 121.788 61.77C121.494 61.77 121.218 61.82 120.958 61.92C120.704 62.02 120.434 62.1633 120.148 62.35L119.668 61.33C120.361 60.8767 121.121 60.65 121.948 60.65C122.734 60.65 123.344 60.84 123.778 61.22C124.218 61.5933 124.438 62.1367 124.438 62.85V64.22C124.438 64.38 124.461 64.4933 124.508 64.56C124.561 64.6267 124.651 64.6633 124.778 64.67V66C124.638 66.0267 124.511 66.0467 124.398 66.06C124.284 66.0733 124.184 66.08 124.098 66.08C123.798 66.08 123.568 66.02 123.408 65.9C123.254 65.78 123.158 65.6167 123.118 65.41L123.088 65.18C122.854 65.48 122.574 65.71 122.248 65.87C121.921 66.0233 121.584 66.1 121.238 66.1C120.891 66.1 120.578 66.0267 120.298 65.88C120.024 65.7333 119.808 65.5367 119.648 65.29C119.488 65.0367 119.408 64.75 119.408 64.43ZM122.588 64.63C122.754 64.4967 122.838 64.36 122.838 64.22V63.75C122.698 63.6967 122.544 63.6567 122.378 63.63C122.218 63.5967 122.071 63.58 121.938 63.58C121.638 63.58 121.391 63.6467 121.198 63.78C121.011 63.9133 120.918 64.0833 120.918 64.29C120.918 64.47 120.988 64.6267 121.128 64.76C121.274 64.8867 121.468 64.95 121.708 64.95C121.868 64.95 122.028 64.92 122.188 64.86C122.348 64.8 122.481 64.7233 122.588 64.63ZM129.427 62.12C129.04 62.1267 128.69 62.19 128.377 62.31C128.064 62.43 127.837 62.61 127.697 62.85V66H126.097V60.75H127.567V61.81C127.747 61.4567 127.98 61.18 128.267 60.98C128.554 60.78 128.854 60.6767 129.167 60.67C129.3 60.67 129.387 60.6733 129.427 60.68V62.12ZM133.072 66.1C132.485 66.1 131.978 65.9733 131.552 65.72C131.132 65.4667 130.808 65.1333 130.582 64.72C130.362 64.3067 130.252 63.8567 130.252 63.37C130.252 62.89 130.362 62.4433 130.582 62.03C130.808 61.6167 131.132 61.2833 131.552 61.03C131.972 60.7767 132.478 60.65 133.072 60.65C133.672 60.65 134.178 60.78 134.592 61.04C135.012 61.2933 135.325 61.6267 135.532 62.04L133.972 62.51C133.765 62.1767 133.462 62.01 133.062 62.01C132.735 62.01 132.458 62.1333 132.232 62.38C132.005 62.6267 131.892 62.9567 131.892 63.37C131.892 63.7833 132.005 64.1167 132.232 64.37C132.458 64.6233 132.735 64.75 133.062 64.75C133.262 64.75 133.445 64.7033 133.612 64.61C133.778 64.51 133.902 64.3833 133.982 64.23L135.542 64.71C135.348 65.1167 135.038 65.45 134.612 65.71C134.192 65.97 133.678 66.1 133.072 66.1ZM141.825 66H140.225V63.05C140.225 62.71 140.155 62.46 140.015 62.3C139.882 62.14 139.702 62.06 139.475 62.06C139.288 62.06 139.078 62.1467 138.845 62.32C138.618 62.4867 138.458 62.71 138.365 62.99V66H136.765V58.7H138.365V61.63C138.552 61.3167 138.805 61.0767 139.125 60.91C139.445 60.7367 139.795 60.65 140.175 60.65C140.528 60.65 140.815 60.71 141.035 60.83C141.255 60.95 141.422 61.11 141.535 61.31C141.648 61.5033 141.725 61.7167 141.765 61.95C141.805 62.1833 141.825 62.4133 141.825 62.64V66Z" fill="white"/>
<path d="M93 61.4286C93 63.3221 94.535 64.8571 96.4286 64.8571C98.3221 64.8571 99.8571 63.3221 99.8571 61.4286C99.8571 59.535 98.3221 58 96.4286 58C94.535 58 93 59.535 93 61.4286Z" fill="#E86719" fill-opacity="0.1"/>
<path d="M101 66L98.8527 63.8532M96.4286 64.8571C94.535 64.8571 93 63.3221 93 61.4286C93 59.535 94.535 58 96.4286 58C98.3221 58 99.8571 59.535 99.8571 61.4286C99.8571 63.3221 98.3221 64.8571 96.4286 64.8571Z" stroke="white" stroke-width="2" stroke-linecap="round"/>
</g>
<path d="M191 63.5C191 57.0796 195.482 51.7059 201.488 50.3373C202.615 50.0804 203.6 51.0092 203.6 52.1655V55.5295C203.6 56.5247 202.848 57.3375 201.939 57.7425C199.736 58.724 198.2 60.9326 198.2 63.5C198.2 66.9794 201.021 69.8 204.5 69.8C205.297 69.8 206.059 69.6521 206.761 69.3822C207.689 69.025 208.795 69.068 209.499 69.7715L211.877 72.15C212.695 72.9679 212.656 74.321 211.676 74.9367C209.597 76.2439 207.137 77 204.5 77C197.044 77 191 70.9559 191 63.5Z" fill="#E86719"/>
<g opacity="0.5">
<path d="M213.75 70.8772C214.568 71.6951 215.921 71.6555 216.537 70.6763C217.844 68.5974 218.6 66.137 218.6 63.5C218.6 62.3563 218.458 61.2458 218.19 60.1852C217.916 59.0999 216.704 58.6278 215.681 59.0824L212.713 60.4011C211.733 60.8368 211.307 61.9752 211.384 63.0451C211.395 63.1954 211.4 63.347 211.4 63.5C211.4 64.2969 211.252 65.0591 210.982 65.7609C210.625 66.6894 210.668 67.7952 211.371 68.4986L213.75 70.8772Z" fill="#E86719"/>
<path d="M207.661 57.7424C206.752 57.3374 206 56.5247 206 55.5295V52.1655C206 51.0092 206.984 50.0803 208.112 50.3372C211.024 51.0007 213.578 52.6059 215.436 54.8155C216.206 55.7305 215.774 57.0712 214.681 57.5568L211.481 58.9793C210.644 59.3513 209.679 59.0779 208.955 58.517C208.559 58.2098 208.125 57.949 207.661 57.7424Z" fill="#E86719"/>
</g>
</g>
<defs>
<filter id="filter0_dd_1470:257" x="105" y="5" width="96" height="81" filterUnits="userSpaceOnUse" color-interpolation-filters="sRGB">
<feFlood flood-opacity="0" result="BackgroundImageFix"/>
<feColorMatrix in="SourceAlpha" type="matrix" values="0 0 0 0 0 0 0 0 0 0 0 0 0 0 0 0 0 0 127 0" result="hardAlpha"/>
<feOffset dy="8"/>
<feGaussianBlur stdDeviation="8"/>
<feColorMatrix type="matrix" values="0 0 0 0 0.306823 0 0 0 0 0.364905 0 0 0 0 0.570833 0 0 0 0.08 0"/>
<feBlend mode="normal" in2="BackgroundImageFix" result="effect1_dropShadow_1470:257"/>
<feColorMatrix in="SourceAlpha" type="matrix" values="0 0 0 0 0 0 0 0 0 0 0 0 0 0 0 0 0 0 127 0" result="hardAlpha"/>
<feOffset dy="4"/>
<feGaussianBlur stdDeviation="2"/>
<feColorMatrix type="matrix" values="0 0 0 0 0.306823 0 0 0 0 0.364905 0 0 0 0 0.570833 0 0 0 0.16 0"/>
<feBlend mode="normal" in2="effect1_dropShadow_1470:257" result="effect2_dropShadow_1470:257"/>
<feBlend mode="normal" in="SourceGraphic" in2="effect2_dropShadow_1470:257" result="shape"/>
</filter>
<filter id="filter1_dd_1470:257" x="-8" y="16" width="99" height="81" filterUnits="userSpaceOnUse" color-interpolation-filters="sRGB">
<feFlood flood-opacity="0" result="BackgroundImageFix"/>
<feColorMatrix in="SourceAlpha" type="matrix" values="0 0 0 0 0 0 0 0 0 0 0 0 0 0 0 0 0 0 127 0" result="hardAlpha"/>
<feOffset dy="8"/>
<feGaussianBlur stdDeviation="8"/>
<feColorMatrix type="matrix" values="0 0 0 0 0.306823 0 0 0 0 0.364905 0 0 0 0 0.570833 0 0 0 0.08 0"/>
<feBlend mode="normal" in2="BackgroundImageFix" result="effect1_dropShadow_1470:257"/>
<feColorMatrix in="SourceAlpha" type="matrix" values="0 0 0 0 0 0 0 0 0 0 0 0 0 0 0 0 0 0 127 0" result="hardAlpha"/>
<feOffset dy="4"/>
<feGaussianBlur stdDeviation="2"/>
<feColorMatrix type="matrix" values="0 0 0 0 0.306823 0 0 0 0 0.364905 0 0 0 0 0.570833 0 0 0 0.16 0"/>
<feBlend mode="normal" in2="effect1_dropShadow_1470:257" result="effect2_dropShadow_1470:257"/>
<feBlend mode="normal" in="SourceGraphic" in2="effect2_dropShadow_1470:257" result="shape"/>
</filter>
<filter id="filter2_dd_1470:257" x="42" y="-8" width="109" height="81" filterUnits="userSpaceOnUse" color-interpolation-filters="sRGB">
<feFlood flood-opacity="0" result="BackgroundImageFix"/>
<feColorMatrix in="SourceAlpha" type="matrix" values="0 0 0 0 0 0 0 0 0 0 0 0 0 0 0 0 0 0 127 0" result="hardAlpha"/>
<feOffset dy="8"/>
<feGaussianBlur stdDeviation="8"/>
<feColorMatrix type="matrix" values="0 0 0 0 0.306823 0 0 0 0 0.364905 0 0 0 0 0.570833 0 0 0 0.08 0"/>
<feBlend mode="normal" in2="BackgroundImageFix" result="effect1_dropShadow_1470:257"/>
<feColorMatrix in="SourceAlpha" type="matrix" values="0 0 0 0 0 0 0 0 0 0 0 0 0 0 0 0 0 0 127 0" result="hardAlpha"/>
<feOffset dy="4"/>
<feGaussianBlur stdDeviation="2"/>
<feColorMatrix type="matrix" values="0 0 0 0 0.306823 0 0 0 0 0.364905 0 0 0 0 0.570833 0 0 0 0.16 0"/>
<feBlend mode="normal" in2="effect1_dropShadow_1470:257" result="effect2_dropShadow_1470:257"/>
<feBlend mode="normal" in="SourceGraphic" in2="effect2_dropShadow_1470:257" result="shape"/>
</filter>
<filter id="filter3_dd_1470:257" x="71" y="46" width="100" height="48" filterUnits="userSpaceOnUse" color-interpolation-filters="sRGB">
<feFlood flood-opacity="0" result="BackgroundImageFix"/>
<feColorMatrix in="SourceAlpha" type="matrix" values="0 0 0 0 0 0 0 0 0 0 0 0 0 0 0 0 0 0 127 0" result="hardAlpha"/>
<feOffset dy="8"/>
<feGaussianBlur stdDeviation="8"/>
<feColorMatrix type="matrix" values="0 0 0 0 0.306823 0 0 0 0 0.364905 0 0 0 0 0.570833 0 0 0 0.08 0"/>
<feBlend mode="normal" in2="BackgroundImageFix" result="effect1_dropShadow_1470:257"/>
<feColorMatrix in="SourceAlpha" type="matrix" values="0 0 0 0 0 0 0 0 0 0 0 0 0 0 0 0 0 0 127 0" result="hardAlpha"/>
<feOffset dy="4"/>
<feGaussianBlur stdDeviation="2"/>
<feColorMatrix type="matrix" values="0 0 0 0 0.306823 0 0 0 0 0.364905 0 0 0 0 0.570833 0 0 0 0.16 0"/>
<feBlend mode="normal" in2="effect1_dropShadow_1470:257" result="effect2_dropShadow_1470:257"/>
<feBlend mode="normal" in="SourceGraphic" in2="effect2_dropShadow_1470:257" result="shape"/>
</filter>
<clipPath id="clip0_1470:257">
<rect width="227" height="77" fill="white"/>
</clipPath>
</defs>
</svg>
